<svg xmlns="http://www.w3.org/2000/svg" xmlns:svg="http://www.w3.org/2000/svg" xmlns:xlink="http://www.w3.org/1999/xlink" version="1.0" height="1869.883385989948pt" width="2619.999703524638pt" viewBox="525.0001453871473 -62.92786405369307 2627.999703524638 1875.883385989948"><defs><style type="text/css">
            @font-face {
                font-family: 'noto_regular';
                src: url('https://app.creately.com/d/assets/fonts/noto/noto-regular.woff') format('woff'),
                     url('https://app.creately.com/d/assets/fonts/noto/noto-regular.woff2') format('woff2');
                font-weight: normal;
                font-style: normal;
            }
        p {
            margin: 0;
        }
        </style></defs><defs>
        <style>
            span{ display: inline-block; }
            
        </style>
        
        </defs><g id="HELGAeODkdu"><g transform="translate(530.0001453871473 -59.92786405369307)"><rect x="0" y="0" width="2619.999703524638" height="1869.883385989948" fill="rgb(227,232,239)" stroke="#4A5567" stroke-width="0.5" stroke-linecap="round" stroke-linejoin="round"/></g><g transform="translate(1839.9949971494661, 865.4138289412809) rotate(0, 0.005, 9.6)" width="0.01" height="19.2"><text text-decoration="none" x="0.055" fill="#4b4b4b" font-size="10pt" font-family="noto_regular" y="13"/></g></g><g id="OjGoQYB8ERQ"><g transform="translate(1389.969240214906 -19.999999999999773)"><path d="M 10,0 L 890.0615195701894,0 L 890.0615195701894,0 L 890.0615195701894,0 A 10 10 0 0 1 900.0615195701894 10 L 900.0615195701894,85.52394170213101 L 900.0615195701894,85.52394170213101 L 900.0615195701894,85.52394170213101 A 10 10 0 0 1 890.0615195701894 95.52394170213101 L 10,95.52394170213101 L 10,95.52394170213101 L 10,95.52394170213101 A 10 10 0 0 1 0 85.52394170213101 L 0,10 L 0,10 L 0,10.000000000000002 A 10 10 0 0 1 10 0 Z" fill="rgb(255,255,255)" stroke="#d4cece" stroke-width="2" stroke-linecap="round" stroke-linejoin="round"/></g><g transform="translate(1399.975006103516, 4.56197008812628) rotate(0, 440.0249938964844, 23.200000762939453)" width="880.0499877929688" height="46.400001525878906"><text text-decoration="none" x="64.34061889648439" fill="rgb(75, 75, 75)" font-weight="bold" font-size="30pt" font-family="arial,helvetica,sans-serif" y="35">E-commerce </text><text text-decoration="none" x="315.5906188964844" fill="rgb(75, 75, 75)" font-weight="bold" font-size="30pt" font-family="arial,helvetica,sans-serif" y="35">- </text><text text-decoration="none" x="340.0437438964844" fill="rgb(75, 75, 75)" font-weight="bold" font-size="30pt" font-family="arial,helvetica,sans-serif" y="35">Order </text><text text-decoration="none" x="460.1062438964844" fill="rgb(75, 75, 75)" font-weight="bold" font-size="30pt" font-family="arial,helvetica,sans-serif" y="35">Process </text><text text-decoration="none" x="626.9031188964843" fill="rgb(75, 75, 75)" font-weight="bold" font-size="30pt" font-family="arial,helvetica,sans-serif" y="35">Flowchart</text><text text-decoration="none" x="815.8093688964843" fill="#4b4b4b" font-size="10pt" font-family="noto_regular" y="35"/></g></g><g id="ALR44ax6qsR"><g transform="translate(1020.0000000000016 159.94288760085976)"><path d="M 50,100 L 50,100 L 50,100 A 50 50 0 0 1 0 50.00000000000001 L 0,50 L 0,50.00000000000001 A 50 50 0 0 1 50 0 L 110,0 L 110,0 L 110,0 A 50 50 0 0 1 160 50 L 160,50 L 160,50 A 50 50 0 0 1 110 100 L 50,100 Z" fill="rgb(148,202,66)" stroke="#587B27" stroke-width="2" stroke-linecap="round" stroke-linejoin="round"/></g><g transform="translate(1085.0000000000016, 200.94288760085976) rotate(0, 15, 9)" width="30" height="18"><text text-decoration="none" x="0.08906250000000071" fill="#FFFFFF" font-size="10pt" font-family="noto_regular" y="14">Start</text><text text-decoration="none" x="30.0109375" fill="#4b4b4b" font-size="10pt" font-family="noto_regular" y="14"/></g></g><g id="bhbEyTZ0ryW"><g transform="translate(1280.0000000000016 159.94288760085976)"><path d="M 80,0 L 0,50 L 80,100 L 160,50 L 80,0 Z" fill="rgb(233,162,59)" stroke="#A85923" stroke-width="2" stroke-linecap="round" stroke-linejoin="round"/></g><g transform="translate(1326.3050000000017, 200.34288760085977) rotate(0, 33.695, 9.6)" width="67.39" height="19.2"><text text-decoration="none" x="0.04968749999999744" fill="#FFFFFF" font-size="10pt" font-family="noto_regular" y="14">Registered</text><text text-decoration="none" x="67.4403125" fill="#4b4b4b" font-size="10pt" font-family="noto_regular" y="14"/></g></g><g id="i7w8sufLb0D"><g><path d="M 1180,210 L 1280,210" fill="none" stroke="#1a1a1a" stroke-width="2" stroke-linecap="round" stroke-linejoin="round"/><path d="M 1280,210 L 1271.304347826087,204.25 L 1271.304347826087,215.75 Z" fill="rgb(26,26,26)" stroke="#1a1a1a" stroke-width="2" stroke-linecap="round" stroke-linejoin="round"/></g></g><g id="OVBYYpIyZcf"><g transform="translate(1280.0000000000016 359.94288760085976)"><rect x="0" y="0" width="160" height="100" fill="rgb(132,94,238)" stroke="#652CD1" stroke-width="2" stroke-linecap="round" stroke-linejoin="round"/></g><g transform="translate(1342.5350000000017, 400.34288760085974) rotate(0, 17.465, 9.6)" width="34.93" height="19.2"><text text-decoration="none" x="0.05406250000000057" fill="#FFFFFF" font-size="10pt" font-family="noto_regular" y="14">Login</text><text text-decoration="none" x="34.9759375" fill="#4b4b4b" font-size="10pt" font-family="noto_regular" y="14"/></g></g><g id="gQlBAlRaJD8"><mask id="12211" x="1344" y="244" width="32" height="132" maskUnits="userSpaceOnUse"><rect x="1344" y="244" width="32" height="132" fill="white"/><rect x="1346.27" y="297.4" width="27.46" height="25.2" fill="black"/>undefined</mask><g mask="url(#12211)"><path d="M 1360,260 L 1360,360" fill="none" stroke="#364153" stroke-width="3" stroke-linecap="round" stroke-linejoin="round"/><path d="M 1360,360 L 1368.625,346.95652173913044 L 1351.375,346.95652173913044 Z" fill="rgb(54,65,83)" stroke="#364153" stroke-width="3" stroke-linecap="round" stroke-linejoin="round"/></g><g transform="translate(1349.27, 300.4)" width="21.46" height="19.2"><rect x="-2.5" y="0" width="26.453125" height="21.5" fill="#364153" rx="5"/><text text-decoration="none" x="0.05343750000000114" fill="#FFFFFF" font-size="10pt" font-family="noto_regular" y="14">Yes</text><text text-decoration="none" x="21.5065625" fill="#4b4b4b" font-size="10pt" font-family="noto_regular" y="14"/></g>undefined</g><g id="7nnrdc6KNyr"><g transform="translate(1540.0000000000014 159.94288760085976)"><rect x="0" y="0" width="160" height="100" fill="rgb(132,94,238)" stroke="#652CD1" stroke-width="2" stroke-linecap="round" stroke-linejoin="round"/></g><g transform="translate(1565.6050000000014, 200.34288760085977) rotate(0, 54.395, 9.6)" width="108.79" height="19.2"><text text-decoration="none" x="0.046562500000000284" fill="#FFFFFF" font-size="10pt" font-family="noto_regular" y="14">User </text><text text-decoration="none" x="32.6715625" fill="#FFFFFF" font-size="10pt" font-family="noto_regular" y="14">Registration</text><text text-decoration="none" x="108.8434375" fill="#4b4b4b" font-size="10pt" font-family="noto_regular" y="14"/></g></g><g id="RN7N1Cch0lB"><mask id="80b81" x="1424" y="194" width="132" height="32" maskUnits="userSpaceOnUse"><rect x="1424" y="194" width="132" height="32" fill="white"/><rect x="1477.3999996185303" y="197.80000019073486" width="25.200000762939453" height="24.399999618530273" fill="black"/></mask><g mask="url(#80b81)"><path d="M 1440,210 L 1540,210" fill="none" stroke="#364153" stroke-width="3" stroke-linecap="round" stroke-linejoin="round"/><path d="M 1540,210 L 1526.9565217391305,201.375 L 1526.9565217391305,218.625 Z" fill="rgb(54,65,83)" stroke="#364153" stroke-width="3" stroke-linecap="round" stroke-linejoin="round"/></g><g transform="translate(1480.3999996185303, 200.80000019073486)" width="19.200000762939453" height="18.399999618530273"><rect x="-2.5" y="0" width="23.203125" height="21.5" fill="#364153" rx="5"/><text text-decoration="none" x="0.5484378814697273" fill="#FFFFFF" font-size="10pt" font-family="noto_regular" y="14">No</text><text text-decoration="none" x="18.751562881469727" fill="#4b4b4b" font-size="10pt" font-family="noto_regular" y="14"/></g></g><g id="RH5LhCCozR0"><mask id="9293b" x="1426" y="246" width="208" height="178" maskUnits="userSpaceOnUse"><rect x="1426" y="246" width="208" height="178" fill="white"/>undefined</mask><g mask="url(#9293b)"><path d="M 1620,260 L 1620.0000000000014,399.94288760085976 Q 1620.0000000000014,409.94288760085976 1610.0000005033696,409.9460605117634 L 1440,410" fill="none" stroke="#1a1a1a" stroke-width="2" stroke-linecap="round" stroke-linejoin="round"/><path d="M 1440,410 L 1448.695652173913,415.75 L 1448.695652173913,404.25 Z" fill="rgb(26,26,26)" stroke="#1a1a1a" stroke-width="2" stroke-linecap="round" stroke-linejoin="round"/></g>undefined</g><g id="7pkBsWNTxv8"><g transform="translate(1280.0000000000016 559.9428876008598)"><path d="M 80,0 L 0,50 L 80,100 L 160,50 L 80,0 Z" fill="rgb(233,162,59)" stroke="#A85923" stroke-width="2" stroke-linecap="round" stroke-linejoin="round"/></g><g transform="translate(1344.0850000000016, 600.3428876008597) rotate(0, 15.915, 9.6)" width="31.83" height="19.2"><text text-decoration="none" x="0.05093749999999986" fill="#FFFFFF" font-size="10pt" font-family="noto_regular" y="14">Shop</text><text text-decoration="none" x="31.8790625" fill="#4b4b4b" font-size="10pt" font-family="noto_regular" y="14"/></g></g><g id="fmohp7ULwAw"><g><path d="M 1360,460 L 1360,560" fill="none" stroke="#1a1a1a" stroke-width="2" stroke-linecap="round" stroke-linejoin="round"/><path d="M 1360,560 L 1365.75,551.304347826087 L 1354.25,551.304347826087 Z" fill="rgb(26,26,26)" stroke="#1a1a1a" stroke-width="2" stroke-linecap="round" stroke-linejoin="round"/></g></g><g id="0VqyBYioDZc"><g transform="translate(1280.0000000000016 759.9428876008596)"><rect x="0" y="0" width="160" height="100" fill="rgb(132,94,238)" stroke="#652CD1" stroke-width="2" stroke-linecap="round" stroke-linejoin="round"/></g><g transform="translate(1298.1400000000017, 800.3428876008596) rotate(0, 61.86, 9.6)" width="123.72" height="19.2"><text text-decoration="none" x="0.04281249999999659" fill="#FFFFFF" font-size="10pt" font-family="noto_regular" y="14">View </text><text text-decoration="none" x="32.9490625" fill="#FFFFFF" font-size="10pt" font-family="noto_regular" y="14">/ </text><text text-decoration="none" x="42.1521875" fill="#FFFFFF" font-size="10pt" font-family="noto_regular" y="14">Search </text><text text-decoration="none" x="88.0740625" fill="#FFFFFF" font-size="10pt" font-family="noto_regular" y="14">Items</text><text text-decoration="none" x="123.7771875" fill="#4b4b4b" font-size="10pt" font-family="noto_regular" y="14"/></g></g><g id="7cHM48L8vJG"><mask id="ed178" x="1346" y="646" width="28" height="128" maskUnits="userSpaceOnUse"><rect x="1346" y="646" width="28" height="128" fill="white"/><rect x="1346.5" y="698" width="27" height="24" fill="black"/>undefinedundefined</mask><g mask="url(#ed178)"><path d="M 1360,660 L 1360,760" fill="none" stroke="#1a1a1a" stroke-width="2" stroke-linecap="round" stroke-linejoin="round"/><path d="M 1360,760 L 1365.75,751.304347826087 L 1354.25,751.304347826087 Z" fill="rgb(26,26,26)" stroke="#1a1a1a" stroke-width="2" stroke-linecap="round" stroke-linejoin="round"/></g><g transform="translate(1349.5, 701)" width="21" height="18"><text text-decoration="none" x="0" fill="#4b4b4b" font-size="10pt" font-family="noto_regular" y="14">Yes</text><text text-decoration="none" x="21.453125" fill="#4b4b4b" font-size="10pt" font-family="noto_regular" y="14"/></g>undefinedundefined</g><g id="83hrmd0v99x"><mask id="cbe90" x="1424" y="594" width="192" height="32" maskUnits="userSpaceOnUse"><rect x="1424" y="594" width="192" height="32" fill="white"/><rect x="1507.895" y="597.4" width="24.21" height="25.2" fill="black"/></mask><g mask="url(#cbe90)"><path d="M 1440,610 L 1600,610" fill="none" stroke="#364153" stroke-width="3" stroke-linecap="round" stroke-linejoin="round"/><path d="M 1600,610 L 1586.9565217391305,601.375 L 1586.9565217391305,618.625 Z" fill="rgb(54,65,83)" stroke="#364153" stroke-width="3" stroke-linecap="round" stroke-linejoin="round"/></g><g transform="translate(1510.895, 600.4)" width="18.21" height="19.2"><rect x="-2.5" y="0" width="23.203125" height="21.5" fill="#364153" rx="5"/><text text-decoration="none" x="0.05343750000000114" fill="#FFFFFF" font-size="10pt" font-family="noto_regular" y="14">No</text><text text-decoration="none" x="18.2565625" fill="#4b4b4b" font-size="10pt" font-family="noto_regular" y="14"/></g></g><g id="Ng72haRbqrU"><g transform="translate(1600.0000000000014 559.9428876008598)"><path d="M 80,0 L 0,50 L 80,100 L 160,50 L 80,0 Z" fill="rgb(233,162,59)" stroke="#A85923" stroke-width="2" stroke-linecap="round" stroke-linejoin="round" stroke-dasharray="0 0"/></g><g transform="translate(1652.9300000000014, 581.9428876008598) rotate(0, 27.07, 28)" width="54.14" height="56"><text text-decoration="none" x="10.666875000000001" fill="#FFFFFF" font-size="10pt" font-family="noto_regular" y="14">View </text><text text-decoration="none" x="43.573125000000005" fill="#FFFFFF" font-size="10pt" font-family="noto_regular" y="14"/><text text-decoration="none" x="0.049687500000000995" fill="#FFFFFF" font-size="10pt" font-family="noto_regular" y="33">Account </text><text text-decoration="none" x="54.190312500000005" fill="#FFFFFF" font-size="10pt" font-family="noto_regular" y="33"/><text text-decoration="none" x="7.596562500000001" fill="#FFFFFF" font-size="10pt" font-family="noto_regular" y="52">Status</text><text text-decoration="none" x="46.643437500000005" fill="#4b4b4b" font-size="10pt" font-family="noto_regular" y="52"/></g></g><g id="4JUxZDImCri"><mask id="ad0d3" x="1666" y="646" width="28" height="128" maskUnits="userSpaceOnUse"><rect x="1666" y="646" width="28" height="128" fill="white"/><rect x="1666.5" y="698" width="27" height="24" fill="black"/></mask><g mask="url(#ad0d3)"><path d="M 1680,660 L 1680,760" fill="none" stroke="#1a1a1a" stroke-width="2" stroke-linecap="round" stroke-linejoin="round"/><path d="M 1680,760 L 1685.75,751.304347826087 L 1674.25,751.304347826087 Z" fill="rgb(26,26,26)" stroke="#1a1a1a" stroke-width="2" stroke-linecap="round" stroke-linejoin="round"/></g><g transform="translate(1669.5, 701)" width="21" height="18"><text text-decoration="none" x="0" fill="#4b4b4b" font-size="10pt" font-family="noto_regular" y="14">Yes</text><text text-decoration="none" x="21.453125" fill="#4b4b4b" font-size="10pt" font-family="noto_regular" y="14"/></g></g><g id="vB0KulM5fnm"><g transform="translate(1600.0000000000014 759.9428876008595)"><rect x="0" y="0" width="160" height="100" fill="rgb(132,94,238)" stroke="#652CD1" stroke-width="2" stroke-linecap="round" stroke-linejoin="round"/></g><g transform="translate(1655.8350000000014, 800.3428876008595) rotate(0, 24.165, 9.6)" width="48.33" height="19.2"><text text-decoration="none" x="0.05093749999999986" fill="#FFFFFF" font-size="10pt" font-family="noto_regular" y="14">Process</text><text text-decoration="none" x="48.3790625" fill="#4b4b4b" font-size="10pt" font-family="noto_regular" y="14"/></g></g><g id="S2Jfi3aFo0I"><g><path d="M 1600,810 L 1489.9999988674217,809.9476469669155 Q 1480,809.9428876008595 1480,799.9428876008595 L 1480,710 L 1480,619.9428876008598 Q 1480,609.9428876008598 1470.000010193191,609.9571656860909 L 1440,610" fill="none" stroke="#1a1a1a" stroke-width="2" stroke-linecap="round" stroke-linejoin="round"/><path d="M 1440,610 L 1448.695652173913,615.75 L 1448.695652173913,604.25 Z" fill="rgb(26,26,26)" stroke="#1a1a1a" stroke-width="2" stroke-linecap="round" stroke-linejoin="round"/></g></g><g id="CDWGA4RHwyS"><mask id="42d19" x="1746" y="596" width="268" height="178" maskUnits="userSpaceOnUse"><rect x="1746" y="596" width="268" height="178" fill="white"/><rect x="1943.0285540751777" y="597.953589380733" width="24" height="24" fill="black"/></mask><g mask="url(#42d19)"><path d="M 1760,610 L 1990.000000283146,609.9452672840899 Q 2000.0000000000014,609.9428876008598 2000.0000000000014,619.9428876008598 L 2000,760" fill="none" stroke="#1a1a1a" stroke-width="2" stroke-linecap="round" stroke-linejoin="round"/><path d="M 2000,760 L 2005.75,751.304347826087 L 1994.25,751.304347826087 Z" fill="rgb(26,26,26)" stroke="#1a1a1a" stroke-width="2" stroke-linecap="round" stroke-linejoin="round"/></g><g transform="translate(1946.0285540751777, 600.953589380733)" width="18" height="18"><text text-decoration="none" x="0" fill="#4b4b4b" font-size="10pt" font-family="noto_regular" y="14">No</text><text text-decoration="none" x="18.203125" fill="#4b4b4b" font-size="10pt" font-family="noto_regular" y="14"/></g></g><g id="QdhdgczeWPC"><g transform="translate(1920.0000000000014 759.9428876008596)"><rect x="0" y="0" width="160" height="100" fill="rgb(132,94,238)" stroke="#652CD1" stroke-width="2" stroke-linecap="round" stroke-linejoin="round"/></g><g transform="translate(1975.8350000000014, 800.3428876008596) rotate(0, 24.165, 9.6)" width="48.33" height="19.2"><text text-decoration="none" x="0.05093749999999986" fill="#FFFFFF" font-size="10pt" font-family="noto_regular" y="14">Process</text><text text-decoration="none" x="48.3790625" fill="#4b4b4b" font-size="10pt" font-family="noto_regular" y="14"/></g></g><g id="SCWFeZd8Ed9"><g transform="translate(1280.0000000000016 909.9428876008599)"><rect x="0" y="0" width="160" height="100" fill="rgb(132,94,238)" stroke="#652CD1" stroke-width="2" stroke-linecap="round" stroke-linejoin="round" stroke-dasharray="0 0"/></g><g transform="translate(1304.9400000000016, 950.3428876008599) rotate(0, 55.06, 9.6)" width="110.12" height="19.2"><text text-decoration="none" x="0.04749999999999943" fill="#FFFFFF" font-size="10pt" font-family="noto_regular" y="14">Add </text><text text-decoration="none" x="28.438125" fill="#FFFFFF" font-size="10pt" font-family="noto_regular" y="14">Items </text><text text-decoration="none" x="67.61" fill="#FFFFFF" font-size="10pt" font-family="noto_regular" y="14">to </text><text text-decoration="none" x="83.95375" fill="#FFFFFF" font-size="10pt" font-family="noto_regular" y="14">Cart</text><text text-decoration="none" x="110.1725" fill="#4b4b4b" font-size="10pt" font-family="noto_regular" y="14"/></g></g><g id="dNMXhHPv3UV"><g><path d="M 1360,860 L 1360,910" fill="none" stroke="#1a1a1a" stroke-width="2" stroke-linecap="round" stroke-linejoin="round"/><path d="M 1360,910 L 1365.75,901.304347826087 L 1354.25,901.304347826087 Z" fill="rgb(26,26,26)" stroke="#1a1a1a" stroke-width="2" stroke-linecap="round" stroke-linejoin="round"/></g></g><g id="2NOGyu4QlW8"><g transform="translate(1280.0000000000016 1059.9428876008596)"><rect x="0" y="0" width="160" height="100" fill="rgb(132,94,238)" stroke="#652CD1" stroke-width="2" stroke-linecap="round" stroke-linejoin="round" stroke-dasharray="0 0"/></g><g transform="translate(1295.6400000000017, 1100.3428876008597) rotate(0, 64.36, 9.6)" width="128.72" height="19.2"><text text-decoration="none" x="0.04281249999999659" fill="#FFFFFF" font-size="10pt" font-family="noto_regular" y="14">Display </text><text text-decoration="none" x="48.9803125" fill="#FFFFFF" font-size="10pt" font-family="noto_regular" y="14">Cart </text><text text-decoration="none" x="78.6678125" fill="#FFFFFF" font-size="10pt" font-family="noto_regular" y="14">Content</text><text text-decoration="none" x="128.7771875" fill="#4b4b4b" font-size="10pt" font-family="noto_regular" y="14"/></g></g><g id="2YBxBLuRSDF"><g><path d="M 1360,1010 L 1360,1060" fill="none" stroke="#1a1a1a" stroke-width="2" stroke-linecap="round" stroke-linejoin="round" stroke-dasharray="0 0"/><path d="M 1360,1060 L 1365.75,1051.304347826087 L 1354.25,1051.304347826087 Z" fill="rgb(26,26,26)" stroke="#1a1a1a" stroke-width="2" stroke-linecap="round" stroke-linejoin="round"/></g></g><g id="eXOCoA28XMM"><g transform="translate(1280.0000000000014 1209.94288760086)"><path d="M 80,0 L 0,50 L 80,100 L 160,50 L 80,0 Z" fill="rgb(233,162,59)" stroke="#A85923" stroke-width="2" stroke-linecap="round" stroke-linejoin="round"/></g><g transform="translate(1334.2150000000013, 1231.94288760086) rotate(0, 25.785, 28)" width="51.57" height="56"><text text-decoration="none" x="0.05375000000000085" fill="#FFFFFF" font-size="10pt" font-family="noto_regular" y="14">Change </text><text text-decoration="none" x="51.61625" fill="#FFFFFF" font-size="10pt" font-family="noto_regular" y="14"/><text text-decoration="none" x="10.99125" fill="#FFFFFF" font-size="10pt" font-family="noto_regular" y="33">Cart </text><text text-decoration="none" x="40.67875" fill="#FFFFFF" font-size="10pt" font-family="noto_regular" y="33"/><text text-decoration="none" x="7.983437500000001" fill="#FFFFFF" font-size="10pt" font-family="noto_regular" y="52">Items</text><text text-decoration="none" x="43.6865625" fill="#4b4b4b" font-size="10pt" font-family="noto_regular" y="52"/></g></g><g id="sCAxHntcaDG"><g><path d="M 1360,1160 L 1360.000000000001,1174.9428876008599 Q 1360.000000000001,1175 1360,1185 Q 1360.000000000001,1194.8857752017198 1360.000000000001,1194.9428876008599 L 1360,1210" fill="none" stroke="#1a1a1a" stroke-width="2" stroke-linecap="round" stroke-linejoin="round" stroke-dasharray="0 0"/><path d="M 1360,1210 L 1365.75,1201.304347826087 L 1354.25,1201.304347826087 Z" fill="rgb(26,26,26)" stroke="#1a1a1a" stroke-width="2" stroke-linecap="round" stroke-linejoin="round"/></g></g><g id="ij4SR4HUMWQ"><g transform="translate(1280.0000000000016 1399.94288760086)"><rect x="0" y="0" width="160" height="100" fill="rgb(132,94,238)" stroke="#652CD1" stroke-width="2" stroke-linecap="round" stroke-linejoin="round"/></g><g transform="translate(1319.5600000000015, 1431.1428876008601) rotate(0, 40.44, 18.8)" width="80.88" height="37.6"><text text-decoration="none" x="0.052499999999994884" fill="#FFFFFF" font-size="10pt" font-family="noto_regular" y="14">Change </text><text text-decoration="none" x="51.614999999999995" fill="#FFFFFF" font-size="10pt" font-family="noto_regular" y="14">Item </text><text text-decoration="none" x="10.513437499999995" fill="#FFFFFF" font-size="10pt" font-family="noto_regular" y="33">Qualtities</text><text text-decoration="none" x="70.4665625" fill="#4b4b4b" font-size="10pt" font-family="noto_regular" y="33"/></g></g><g id="R7wvMI2ucca"><mask id="959e2" x="1346" y="1296" width="28" height="118" maskUnits="userSpaceOnUse"><rect x="1346" y="1296" width="28" height="118" fill="white"/><rect x="1346.5000000000016" y="1342.94288760086" width="27" height="24" fill="black"/></mask><g mask="url(#959e2)"><path d="M 1360,1310 L 1360,1355 Q 1360.0000000000011,1364.8857752017202 1360.0000000000011,1364.94288760086 L 1360,1400" fill="none" stroke="#1a1a1a" stroke-width="2" stroke-linecap="round" stroke-linejoin="round"/><path d="M 1360,1400 L 1365.75,1391.304347826087 L 1354.25,1391.304347826087 Z" fill="rgb(26,26,26)" stroke="#1a1a1a" stroke-width="2" stroke-linecap="round" stroke-linejoin="round"/></g><g transform="translate(1349.5000000000016, 1345.94288760086)" width="21" height="18"><text text-decoration="none" x="0" fill="#4b4b4b" font-size="10pt" font-family="noto_regular" y="14">Yes</text><text text-decoration="none" x="21.453125" fill="#4b4b4b" font-size="10pt" font-family="noto_regular" y="14"/></g></g><g id="DfThJh9Sv5d"><g transform="translate(1600.000000000002 1399.94288760086)"><rect x="0" y="0" width="160" height="100" fill="rgb(132,94,238)" stroke="#652CD1" stroke-width="2" stroke-linecap="round" stroke-linejoin="round"/></g><g transform="translate(1650.590000000002, 1440.3428876008602) rotate(0, 29.41, 9.6)" width="58.82" height="19.2"><text text-decoration="none" x="0.05375000000000085" fill="#FFFFFF" font-size="10pt" font-family="noto_regular" y="14">Checkout</text><text text-decoration="none" x="58.86625" fill="#4b4b4b" font-size="10pt" font-family="noto_regular" y="14"/></g></g><g id="eUmh0ljSfwu"><mask id="f90ce" x="1426" y="1246" width="268" height="168" maskUnits="userSpaceOnUse"><rect x="1426" y="1246" width="268" height="168" fill="white"/><rect x="1618.02855421675" y="1247.9547792223484" width="24" height="24" fill="black"/></mask><g mask="url(#f90ce)"><path d="M 1440,1260 L 1670.0000002831466,1259.9452672840903 Q 1680.000000000002,1259.94288760086 1680.0000000000018,1269.94288760086 L 1680,1400" fill="none" stroke="#1a1a1a" stroke-width="2" stroke-linecap="round" stroke-linejoin="round"/><path d="M 1680,1400 L 1685.75,1391.304347826087 L 1674.25,1391.304347826087 Z" fill="rgb(26,26,26)" stroke="#1a1a1a" stroke-width="2" stroke-linecap="round" stroke-linejoin="round"/></g><g transform="translate(1621.02855421675, 1250.9547792223484)" width="18" height="18"><text text-decoration="none" x="0" fill="#4b4b4b" font-size="10pt" font-family="noto_regular" y="14">No</text><text text-decoration="none" x="18.203125" fill="#4b4b4b" font-size="10pt" font-family="noto_regular" y="14"/></g></g><g id="MiIvOoPZCQ3"><g><path d="M 1440,1450 L 1600,1450" fill="none" stroke="#1a1a1a" stroke-width="2" stroke-linecap="round" stroke-linejoin="round"/><path d="M 1600,1450 L 1591.304347826087,1444.25 L 1591.304347826087,1455.75 Z" fill="rgb(26,26,26)" stroke="#1a1a1a" stroke-width="2" stroke-linecap="round" stroke-linejoin="round"/></g></g><g id="7LOgBzxoF7N"><g><path d="M 1760,1450 L 1830.0000025483025,1449.9500266489333 Q 1840.0000000000018,1449.94288760086 1840.0000000000018,1439.94288760086 L 1840,1280 L 1840.0000000000018,1119.9428876008596 Q 1840.0000000000018,1109.9428876008596 1849.9999974517011,1109.9500266489329 L 1920,1110" fill="none" stroke="#1a1a1a" stroke-width="2" stroke-linecap="round" stroke-linejoin="round"/><path d="M 1920,1110 L 1911.304347826087,1104.25 L 1911.304347826087,1115.75 Z" fill="rgb(26,26,26)" stroke="#1a1a1a" stroke-width="2" stroke-linecap="round" stroke-linejoin="round"/></g></g><g id="dwvcSiNNHOb"><g transform="translate(1920.0000000000014 1059.9428876008596)"><rect x="0" y="0" width="160" height="100" fill="rgb(132,94,238)" stroke="#652CD1" stroke-width="2" stroke-linecap="round" stroke-linejoin="round" stroke-dasharray="0 0"/></g><g transform="translate(1955.2050000000013, 1100.3428876008597) rotate(0, 44.795, 9.6)" width="89.59" height="19.2"><text text-decoration="none" x="0.04812499999999886" fill="#FFFFFF" font-size="10pt" font-family="noto_regular" y="14">Shopping </text><text text-decoration="none" x="63.423125" fill="#FFFFFF" font-size="10pt" font-family="noto_regular" y="14">Cart</text><text text-decoration="none" x="89.641875" fill="#4b4b4b" font-size="10pt" font-family="noto_regular" y="14"/></g></g><g id="LEgLnciMOe6"><g transform="translate(1920.0000000000014 1239.94288760086)"><rect x="0" y="0" width="160" height="100" fill="rgb(132,94,238)" stroke="#652CD1" stroke-width="2" stroke-linecap="round" stroke-linejoin="round" stroke-dasharray="0 0"/></g><g transform="translate(1949.7100000000014, 1271.1428876008601) rotate(0, 50.29, 18.8)" width="100.58" height="37.6"><text text-decoration="none" x="0.035312499999996305" fill="#FFFFFF" font-size="10pt" font-family="noto_regular" y="14">Payment </text><text text-decoration="none" x="58.879062499999996" fill="#FFFFFF" font-size="10pt" font-family="noto_regular" y="14">Info </text><text text-decoration="none" x="87.7696875" fill="#FFFFFF" font-size="10pt" font-family="noto_regular" y="14">to </text><text text-decoration="none" x="20.199374999999996" fill="#FFFFFF" font-size="10pt" font-family="noto_regular" y="33">Merchant</text><text text-decoration="none" x="80.480625" fill="#4b4b4b" font-size="10pt" font-family="noto_regular" y="33"/></g></g><g id="jxCF66B6lHc"><g><path d="M 2000,1160 L 2000,1240" fill="none" stroke="#1a1a1a" stroke-width="2" stroke-linecap="round" stroke-linejoin="round" stroke-dasharray="0 0"/><path d="M 2000,1240 L 2005.75,1231.304347826087 L 1994.25,1231.304347826087 Z" fill="rgb(26,26,26)" stroke="#1a1a1a" stroke-width="2" stroke-linecap="round" stroke-linejoin="round"/></g></g><g id="Wn7UHmVQ9nS"><g><path d="M 2000,1340 L 2000,1410" fill="none" stroke="#1a1a1a" stroke-width="2" stroke-linecap="round" stroke-linejoin="round" stroke-dasharray="0 0"/><path d="M 2000,1410 L 2005.75,1401.304347826087 L 1994.25,1401.304347826087 Z" fill="rgb(26,26,26)" stroke="#1a1a1a" stroke-width="2" stroke-linecap="round" stroke-linejoin="round"/></g></g><g id="bDTwUJRtz9z"><g transform="translate(1920.0000000000014 1409.9428876008596)"><path d="M 80,0 L 0,50 L 80,100 L 160,50 L 80,0 Z" fill="rgb(233,162,59)" stroke="#A85923" stroke-width="2" stroke-linecap="round" stroke-linejoin="round"/></g><g transform="translate(1969.5100000000014, 1450.3428876008597) rotate(0, 30.49, 9.6)" width="60.98" height="19.2"><text text-decoration="none" x="0.04781249999999915" fill="#FFFFFF" font-size="10pt" font-family="noto_regular" y="14">Approved</text><text text-decoration="none" x="61.0321875" fill="#4b4b4b" font-size="10pt" font-family="noto_regular" y="14"/></g></g><g id="BfSoiPLM9jw"><mask id="f9905" x="2066" y="1096" width="108" height="378" maskUnits="userSpaceOnUse"><rect x="2066" y="1096" width="108" height="378" fill="white"/><rect x="2148" y="1272.9428876008596" width="24" height="24" fill="black"/></mask><g mask="url(#f9905)"><path d="M 2080,1460 L 2150.0000025483005,1459.9500266489329 Q 2160,1459.9428876008596 2160,1449.9428876008596 L 2160,1285 L 2160,1119.9428876008596 Q 2160,1109.9428876008596 2150.0000025483005,1109.9500266489329 L 2080,1110" fill="none" stroke="#1a1a1a" stroke-width="2" stroke-linecap="round" stroke-linejoin="round"/><path d="M 2080,1110 L 2088.695652173913,1115.75 L 2088.695652173913,1104.25 Z" fill="rgb(26,26,26)" stroke="#1a1a1a" stroke-width="2" stroke-linecap="round" stroke-linejoin="round"/></g><g transform="translate(2151, 1275.9428876008596)" width="18" height="18"><text text-decoration="none" x="0" fill="#4b4b4b" font-size="10pt" font-family="noto_regular" y="14">No</text><text text-decoration="none" x="18.203125" fill="#4b4b4b" font-size="10pt" font-family="noto_regular" y="14"/></g></g><g id="17IiGv3yMPk"><mask id="936db" x="1986" y="1496" width="28" height="98" maskUnits="userSpaceOnUse"><rect x="1986" y="1496" width="28" height="98" fill="white"/><rect x="1986.5" y="1533" width="27" height="24" fill="black"/></mask><g mask="url(#936db)"><path d="M 2000,1510 L 2000,1580" fill="none" stroke="#1a1a1a" stroke-width="2" stroke-linecap="round" stroke-linejoin="round"/><path d="M 2000,1580 L 2005.75,1571.304347826087 L 1994.25,1571.304347826087 Z" fill="rgb(26,26,26)" stroke="#1a1a1a" stroke-width="2" stroke-linecap="round" stroke-linejoin="round"/></g><g transform="translate(1989.5, 1536)" width="21" height="18"><text text-decoration="none" x="0" fill="#4b4b4b" font-size="10pt" font-family="noto_regular" y="14">Yes</text><text text-decoration="none" x="21.453125" fill="#4b4b4b" font-size="10pt" font-family="noto_regular" y="14"/></g></g><g id="XJ2rxktcSPD"><g transform="translate(1920.0000000000014 1579.9428876008596)"><rect x="0" y="0" width="160" height="100" fill="rgb(132,94,238)" stroke="#652CD1" stroke-width="2" stroke-linecap="round" stroke-linejoin="round"/></g><g transform="translate(1943.4700000000014, 1620.3428876008597) rotate(0, 56.53, 9.6)" width="113.06" height="19.2"><text text-decoration="none" x="0.048749999999998295" fill="#FFFFFF" font-size="10pt" font-family="noto_regular" y="14">POS </text><text text-decoration="none" x="29.314375" fill="#FFFFFF" font-size="10pt" font-family="noto_regular" y="14">Interagration</text><text text-decoration="none" x="113.11125" fill="#4b4b4b" font-size="10pt" font-family="noto_regular" y="14"/></g></g><g id="Fu1xctDU5gL"><g><path d="M 2080,1630 L 2180,1630" fill="none" stroke="#1a1a1a" stroke-width="2" stroke-linecap="round" stroke-linejoin="round"/><path d="M 2180,1630 L 2171.304347826087,1624.25 L 2171.304347826087,1635.75 Z" fill="rgb(26,26,26)" stroke="#1a1a1a" stroke-width="2" stroke-linecap="round" stroke-linejoin="round"/></g></g><g id="KX1ywsdjvQf"><g transform="translate(2180.000000000002 1579.9428876008596)"><rect x="0" y="0" width="160" height="100" fill="rgb(132,94,238)" stroke="#652CD1" stroke-width="2" stroke-linecap="round" stroke-linejoin="round" stroke-dasharray="0 0"/></g><g transform="translate(2195.460000000002, 1620.3428876008597) rotate(0, 64.54, 9.6)" width="129.08" height="19.2"><text text-decoration="none" x="0.05093750000000341" fill="#FFFFFF" font-size="10pt" font-family="noto_regular" y="14">Shipping </text><text text-decoration="none" x="58.7853125" fill="#FFFFFF" font-size="10pt" font-family="noto_regular" y="14">&amp; </text><text text-decoration="none" x="72.0196875" fill="#FFFFFF" font-size="10pt" font-family="noto_regular" y="14">Handling</text><text text-decoration="none" x="129.1290625" fill="#4b4b4b" font-size="10pt" font-family="noto_regular" y="14"/></g></g><g id="Jcu9XCHdyDk"><g><path d="M 2340,1630 L 2440,1630" fill="none" stroke="#418FAE" stroke-width="2" stroke-linecap="round" stroke-linejoin="round" stroke-dasharray="0 0"/><path d="M 2440,1630 L 2431.304347826087,1624.25 L 2431.304347826087,1635.75 Z" fill="rgb(65,143,174)" stroke="#418FAE" stroke-width="2" stroke-linecap="round" stroke-linejoin="round"/></g></g><g id="cpHo4lLMu25"><g transform="translate(2440.000000000002 1579.9428876008596)"><rect x="0" y="0" width="160" height="100" fill="rgb(132,94,238)" stroke="#652CD1" stroke-width="2" stroke-linecap="round" stroke-linejoin="round" stroke-dasharray="0 0"/></g><g transform="translate(2458.320000000002, 1620.3428876008597) rotate(0, 61.68, 9.6)" width="123.36" height="19.2"><text text-decoration="none" x="0.050312499999996874" fill="#FFFFFF" font-size="10pt" font-family="noto_regular" y="14">Order </text><text text-decoration="none" x="40.6596875" fill="#FFFFFF" font-size="10pt" font-family="noto_regular" y="14">Confirmation</text><text text-decoration="none" x="123.40968749999999" fill="#4b4b4b" font-size="10pt" font-family="noto_regular" y="14"/></g></g><g id="B32y3BWb5Bj"><g transform="translate(2440.000000000002 1379.9428876008596)"><path d="M 50,100 L 50,100 L 50,100 A 50 50 0 0 1 0 50.00000000000001 L 0,50 L 0,50.00000000000001 A 50 50 0 0 1 50 0 L 110,0 L 110,0 L 110,0 A 50 50 0 0 1 160 50 L 160,50 L 160,50 A 50 50 0 0 1 110 100 L 50,100 Z" fill="rgb(113,113,121)" stroke="#3F3F45" stroke-width="2" stroke-linecap="round" stroke-linejoin="round"/></g><g transform="translate(2450.000000000002, 1420.7428877915945) rotate(0, 70, 9.199999809265137)" width="140" height="18.399999618530273"><text text-decoration="none" x="58.1203125" fill="#FFFFFF" font-size="10pt" font-family="noto_regular" y="14">End</text><text text-decoration="none" x="81.9796875" fill="#4b4b4b" font-size="10pt" font-family="noto_regular" y="14"/></g></g><g id="EZcH7plstTC"><g><path d="M 2520,1580 L 2520,1480" fill="none" stroke="#1a1a1a" stroke-width="2" stroke-linecap="round" stroke-linejoin="round" stroke-dasharray="0 0"/><path d="M 2520,1480 L 2514.25,1488.695652173913 L 2525.75,1488.695652173913 Z" fill="rgb(26,26,26)" stroke="#1a1a1a" stroke-width="2" stroke-linecap="round" stroke-linejoin="round"/></g></g></svg>